<svg width="1280" height="720" viewBox="0 0 1280 720" fill="none" xmlns="http://www.w3.org/2000/svg" role="img" aria-labelledby="title desc">
  <title id="title">Winko AI agent signal light overview</title>
  <desc id="desc">A polished macOS desktop scene where several AI agent sources flow into one floating signal light.</desc>
  <defs>
    <linearGradient id="bg" x1="0" y1="0" x2="1280" y2="720" gradientUnits="userSpaceOnUse">
      <stop stop-color="#111827"/>
      <stop offset="0.48" stop-color="#172033"/>
      <stop offset="1" stop-color="#1E2A23"/>
    </linearGradient>
    <linearGradient id="desktop" x1="160" y1="96" x2="1120" y2="650" gradientUnits="userSpaceOnUse">
      <stop stop-color="#F8FAFC"/>
      <stop offset="1" stop-color="#DDE5EE"/>
    </linearGradient>
    <linearGradient id="glass" x1="723" y1="114" x2="1037" y2="596" gradientUnits="userSpaceOnUse">
      <stop stop-color="#18202B"/>
      <stop offset="1" stop-color="#0B1017"/>
    </linearGradient>
    <linearGradient id="rail" x1="204" y1="548" x2="1076" y2="548" gradientUnits="userSpaceOnUse">
      <stop stop-color="#22C55E"/>
      <stop offset="0.5" stop-color="#FACC15"/>
      <stop offset="1" stop-color="#EF4444"/>
    </linearGradient>
    <filter id="cardShadow" x="112" y="58" width="1056" height="648" filterUnits="userSpaceOnUse" color-interpolation-filters="sRGB">
      <feFlood flood-opacity="0" result="BackgroundImageFix"/>
      <feColorMatrix in="SourceAlpha" type="matrix" values="0 0 0 0 0 0 0 0 0 0 0 0 0 0 0 0 0 0 127 0" result="hardAlpha"/>
      <feOffset dy="26"/>
      <feGaussianBlur stdDeviation="26"/>
      <feComposite in2="hardAlpha" operator="out"/>
      <feColorMatrix type="matrix" values="0 0 0 0 0.011 0 0 0 0 0.016 0 0 0 0 0.027 0 0 0 0.42 0"/>
      <feBlend mode="normal" in2="BackgroundImageFix" result="shadow"/>
      <feBlend mode="normal" in="SourceGraphic" in2="shadow" result="shape"/>
    </filter>
    <filter id="softGlow" x="738" y="152" width="358" height="438" filterUnits="userSpaceOnUse" color-interpolation-filters="sRGB">
      <feGaussianBlur stdDeviation="26"/>
    </filter>
    <filter id="lampGlow" x="806" y="205" width="214" height="214" filterUnits="userSpaceOnUse" color-interpolation-filters="sRGB">
      <feGaussianBlur stdDeviation="22"/>
    </filter>
    <filter id="alertGlow" x="803" y="421" width="220" height="158" filterUnits="userSpaceOnUse" color-interpolation-filters="sRGB">
      <feGaussianBlur stdDeviation="18"/>
    </filter>
  </defs>

  <rect width="1280" height="720" rx="0" fill="url(#bg)"/>
  <path d="M0 520C136 468 249 452 391 498C552 550 641 640 821 597C981 559 1072 481 1280 510V720H0V520Z" fill="#253528" fill-opacity="0.58"/>
  <path d="M68 110C191 76 311 79 420 120C542 166 633 156 742 115C884 62 1040 75 1212 137" stroke="#334155" stroke-width="2" stroke-linecap="round" stroke-dasharray="6 14" opacity="0.55"/>

  <g filter="url(#cardShadow)">
    <rect x="160" y="96" width="960" height="554" rx="34" fill="url(#desktop)"/>
    <rect x="160" y="96" width="960" height="64" rx="34" fill="#CBD5E1"/>
    <rect x="160" y="132" width="960" height="28" fill="#CBD5E1"/>
    <circle cx="205" cy="128" r="9" fill="#FF5F57"/>
    <circle cx="235" cy="128" r="9" fill="#FFBD2E"/>
    <circle cx="265" cy="128" r="9" fill="#28C840"/>
    <rect x="323" y="119" width="222" height="18" rx="9" fill="#94A3B8"/>
    <rect x="584" y="118" width="350" height="20" rx="10" fill="#E2E8F0"/>
  </g>

  <g>
    <text x="218" y="235" fill="#0F172A" font-family="Inter, -apple-system, BlinkMacSystemFont, 'Segoe UI', sans-serif" font-size="72" font-weight="850">Winko</text>
    <text x="220" y="282" fill="#334155" font-family="Inter, -apple-system, BlinkMacSystemFont, 'Segoe UI', sans-serif" font-size="24" font-weight="700">AI Agent Signal Light</text>
    <text x="220" y="326" fill="#64748B" font-family="Inter, -apple-system, BlinkMacSystemFont, 'Segoe UI', sans-serif" font-size="18" font-weight="500">Local agent status, one signal.</text>
  </g>

  <g>
    <rect x="220" y="382" width="430" height="54" rx="16" fill="#FFFFFF" stroke="#CBD5E1"/>
    <circle cx="250" cy="409" r="10" fill="#22C55E"/>
    <text x="278" y="416" fill="#111827" font-family="Inter, -apple-system, BlinkMacSystemFont, 'Segoe UI', sans-serif" font-size="18" font-weight="750">idle</text>
    <text x="358" y="416" fill="#64748B" font-family="Inter, -apple-system, BlinkMacSystemFont, 'Segoe UI', sans-serif" font-size="16" font-weight="550">all clear</text>
    <rect x="220" y="452" width="430" height="54" rx="16" fill="#FFFFFF" stroke="#CBD5E1"/>
    <circle cx="250" cy="479" r="10" fill="#FACC15"/>
    <text x="278" y="486" fill="#111827" font-family="Inter, -apple-system, BlinkMacSystemFont, 'Segoe UI', sans-serif" font-size="18" font-weight="750">attention</text>
    <text x="388" y="486" fill="#64748B" font-family="Inter, -apple-system, BlinkMacSystemFont, 'Segoe UI', sans-serif" font-size="16" font-weight="550">needs a look</text>
    <rect x="220" y="522" width="430" height="54" rx="16" fill="#FFFFFF" stroke="#CBD5E1"/>
    <circle cx="250" cy="549" r="10" fill="#EF4444"/>
    <text x="278" y="556" fill="#111827" font-family="Inter, -apple-system, BlinkMacSystemFont, 'Segoe UI', sans-serif" font-size="18" font-weight="750">error</text>
    <text x="358" y="556" fill="#64748B" font-family="Inter, -apple-system, BlinkMacSystemFont, 'Segoe UI', sans-serif" font-size="16" font-weight="550">permission or failure</text>
    <rect x="220" y="604" width="430" height="8" rx="4" fill="url(#rail)"/>
  </g>

  <g>
    <path d="M672 302C707 302 722 273 748 273" stroke="#94A3B8" stroke-width="3" stroke-linecap="round" stroke-dasharray="7 10"/>
    <path d="M672 374C722 374 723 359 748 359" stroke="#94A3B8" stroke-width="3" stroke-linecap="round" stroke-dasharray="7 10"/>
    <path d="M672 446C706 446 723 473 748 473" stroke="#94A3B8" stroke-width="3" stroke-linecap="round" stroke-dasharray="7 10"/>
    <rect x="558" y="277" width="114" height="48" rx="24" fill="#F8FAFC" stroke="#CBD5E1"/>
    <text x="589" y="307" fill="#1F2937" font-family="Inter, -apple-system, BlinkMacSystemFont, 'Segoe UI', sans-serif" font-size="15" font-weight="750">Codex</text>
    <rect x="530" y="349" width="142" height="48" rx="24" fill="#F8FAFC" stroke="#CBD5E1"/>
    <text x="560" y="379" fill="#1F2937" font-family="Inter, -apple-system, BlinkMacSystemFont, 'Segoe UI', sans-serif" font-size="15" font-weight="750">Claude Code</text>
    <rect x="543" y="421" width="129" height="48" rx="24" fill="#F8FAFC" stroke="#CBD5E1"/>
    <text x="579" y="451" fill="#1F2937" font-family="Inter, -apple-system, BlinkMacSystemFont, 'Segoe UI', sans-serif" font-size="15" font-weight="750">Cursor</text>
    <rect x="481" y="493" width="191" height="48" rx="24" fill="#F8FAFC" stroke="#CBD5E1"/>
    <text x="514" y="523" fill="#1F2937" font-family="Inter, -apple-system, BlinkMacSystemFont, 'Segoe UI', sans-serif" font-size="15" font-weight="750">OpenCode + more</text>
  </g>

  <g>
    <rect x="748" y="168" width="298" height="410" rx="52" fill="url(#glass)"/>
    <rect x="778" y="198" width="238" height="350" rx="42" fill="#1F2937" stroke="#334155"/>
    <g filter="url(#softGlow)" opacity="0.48">
      <ellipse cx="895" cy="371" rx="114" ry="167" fill="#22C55E"/>
      <ellipse cx="916" cy="423" rx="118" ry="110" fill="#FACC15"/>
    </g>
    <g filter="url(#lampGlow)" opacity="0.9">
      <circle cx="897" cy="312" r="63" fill="#22C55E"/>
    </g>
    <circle cx="897" cy="312" r="48" fill="#22C55E"/>
    <circle cx="897" cy="312" r="25" fill="#BBF7D0"/>
    <circle cx="897" cy="426" r="48" fill="#FACC15"/>
    <path d="M873 423H921" stroke="#111827" stroke-width="12" stroke-linecap="round"/>
    <path d="M897 399V447" stroke="#111827" stroke-width="12" stroke-linecap="round"/>
    <g filter="url(#alertGlow)" opacity="0.85">
      <circle cx="897" cy="515" r="37" fill="#EF4444"/>
    </g>
    <circle cx="897" cy="515" r="29" fill="#EF4444"/>
    <path d="M897 500V516" stroke="#FEF2F2" stroke-width="7" stroke-linecap="round"/>
    <circle cx="897" cy="528" r="4" fill="#FEF2F2"/>
  </g>

  <g>
    <rect x="814" y="114" width="206" height="52" rx="26" fill="#F8FAFC" stroke="#CBD5E1"/>
    <circle cx="842" cy="140" r="9" fill="#22C55E"/>
    <text x="862" y="146" fill="#0F172A" font-family="Inter, -apple-system, BlinkMacSystemFont, 'Segoe UI', sans-serif" font-size="16" font-weight="800">one signal</text>
    <rect x="842" y="586" width="166" height="42" rx="21" fill="#111827" stroke="#334155"/>
    <text x="876" y="613" fill="#E5E7EB" font-family="Inter, -apple-system, BlinkMacSystemFont, 'Segoe UI', sans-serif" font-size="14" font-weight="750">desktop + hardware</text>
  </g>
</svg>
