<svg width="1280" height="720" viewBox="0 0 1280 720" fill="none" xmlns="http://www.w3.org/2000/svg" role="img" aria-labelledby="title desc">
  <title id="title">Blinko desktop signal light overview</title>
  <desc id="desc">A macOS desktop with a floating signal light that summarizes AI agent status across multiple tools.</desc>
  <defs>
    <linearGradient id="bg" x1="0" y1="0" x2="1280" y2="720" gradientUnits="userSpaceOnUse">
      <stop stop-color="#101318"/>
      <stop offset="0.47" stop-color="#18181C"/>
      <stop offset="1" stop-color="#20251E"/>
    </linearGradient>
    <linearGradient id="panel" x1="145" y1="108" x2="1136" y2="643" gradientUnits="userSpaceOnUse">
      <stop stop-color="#F8FAFC" stop-opacity="0.98"/>
      <stop offset="1" stop-color="#E8EDF2" stop-opacity="0.92"/>
    </linearGradient>
    <filter id="shadow" x="91" y="52" width="1098" height="636" filterUnits="userSpaceOnUse" color-interpolation-filters="sRGB">
      <feFlood flood-opacity="0" result="BackgroundImageFix"/>
      <feColorMatrix in="SourceAlpha" type="matrix" values="0 0 0 0 0 0 0 0 0 0 0 0 0 0 0 0 0 0 127 0" result="hardAlpha"/>
      <feOffset dy="22"/>
      <feGaussianBlur stdDeviation="24"/>
      <feComposite in2="hardAlpha" operator="out"/>
      <feColorMatrix type="matrix" values="0 0 0 0 0.02 0 0 0 0 0.02 0 0 0 0 0.025 0 0 0 0.38 0"/>
      <feBlend mode="normal" in2="BackgroundImageFix" result="effect1_dropShadow_1_2"/>
      <feBlend mode="normal" in="SourceGraphic" in2="effect1_dropShadow_1_2" result="shape"/>
    </filter>
    <filter id="greenGlow" x="854" y="174" width="242" height="242" filterUnits="userSpaceOnUse" color-interpolation-filters="sRGB">
      <feGaussianBlur stdDeviation="28"/>
    </filter>
    <filter id="yellowGlow" x="809" y="303" width="332" height="332" filterUnits="userSpaceOnUse" color-interpolation-filters="sRGB">
      <feGaussianBlur stdDeviation="34"/>
    </filter>
    <filter id="redGlow" x="889" y="521" width="152" height="152" filterUnits="userSpaceOnUse" color-interpolation-filters="sRGB">
      <feGaussianBlur stdDeviation="18"/>
    </filter>
  </defs>

  <rect width="1280" height="720" fill="url(#bg)"/>
  <path d="M0 520C184 460 302 467 448 525C600 586 765 631 944 559C1079 504 1178 486 1280 516V720H0V520Z" fill="#2B3329" fill-opacity="0.42"/>

  <g filter="url(#shadow)">
    <rect x="145" y="108" width="990" height="535" rx="32" fill="url(#panel)"/>
    <rect x="145" y="108" width="990" height="62" rx="32" fill="#D9E0E7"/>
    <rect x="145" y="143" width="990" height="27" fill="#D9E0E7"/>
    <circle cx="190" cy="139" r="9" fill="#FF5F57"/>
    <circle cx="220" cy="139" r="9" fill="#FFBD2E"/>
    <circle cx="250" cy="139" r="9" fill="#28C840"/>
    <rect x="303" y="131" width="255" height="18" rx="9" fill="#AEB8C3"/>
  </g>

  <g>
    <text x="207" y="240" fill="#101827" font-family="Inter, -apple-system, BlinkMacSystemFont, 'Segoe UI', sans-serif" font-size="62" font-weight="800">Blinko</text>
    <text x="207" y="286" fill="#485465" font-family="Inter, -apple-system, BlinkMacSystemFont, 'Segoe UI', sans-serif" font-size="25" font-weight="600">Your AI agents, translated into light.</text>
    <text x="207" y="330" fill="#647184" font-family="Inter, -apple-system, BlinkMacSystemFont, 'Segoe UI', sans-serif" font-size="18" font-weight="500">Codex, Claude Code, Cursor, OpenCode and more report back as one calm desktop signal.</text>
  </g>

  <g>
    <rect x="207" y="384" width="430" height="58" rx="14" fill="#FFFFFF" stroke="#D5DDE6"/>
    <circle cx="239" cy="413" r="11" fill="#22C55E"/>
    <text x="266" y="420" fill="#1F2937" font-family="Inter, -apple-system, BlinkMacSystemFont, 'Segoe UI', sans-serif" font-size="19" font-weight="700">idle</text>
    <text x="334" y="420" fill="#687486" font-family="Inter, -apple-system, BlinkMacSystemFont, 'Segoe UI', sans-serif" font-size="17" font-weight="500">all clear</text>
  </g>
  <g>
    <rect x="207" y="462" width="430" height="58" rx="14" fill="#FFFFFF" stroke="#D5DDE6"/>
    <circle cx="239" cy="491" r="11" fill="#FACC15"/>
    <text x="266" y="498" fill="#1F2937" font-family="Inter, -apple-system, BlinkMacSystemFont, 'Segoe UI', sans-serif" font-size="19" font-weight="700">attention</text>
    <text x="376" y="498" fill="#687486" font-family="Inter, -apple-system, BlinkMacSystemFont, 'Segoe UI', sans-serif" font-size="17" font-weight="500">needs your eyes</text>
  </g>
  <g>
    <rect x="207" y="540" width="430" height="58" rx="14" fill="#FFFFFF" stroke="#D5DDE6"/>
    <circle cx="239" cy="569" r="11" fill="#EF4444"/>
    <text x="266" y="576" fill="#1F2937" font-family="Inter, -apple-system, BlinkMacSystemFont, 'Segoe UI', sans-serif" font-size="19" font-weight="700">error</text>
    <text x="334" y="576" fill="#687486" font-family="Inter, -apple-system, BlinkMacSystemFont, 'Segoe UI', sans-serif" font-size="17" font-weight="500">permission or failure</text>
  </g>

  <g>
    <rect x="755" y="175" width="267" height="398" rx="52" fill="#15191F"/>
    <rect x="781" y="205" width="215" height="338" rx="39" fill="#242A31"/>
    <g filter="url(#greenGlow)" opacity="0.8">
      <circle cx="975" cy="295" r="65" fill="#22C55E"/>
    </g>
    <circle cx="975" cy="295" r="40" fill="#22C55E"/>
    <g filter="url(#yellowGlow)" opacity="0.72">
      <circle cx="975" cy="469" r="90" fill="#FACC15"/>
    </g>
    <circle cx="975" cy="469" r="64" fill="#FACC15"/>
    <path d="M948 454L980 486L1027 434" stroke="#15191F" stroke-width="18" stroke-linecap="round" stroke-linejoin="round"/>
    <g filter="url(#redGlow)" opacity="0.82">
      <circle cx="965" cy="597" r="40" fill="#EF4444"/>
    </g>
    <circle cx="965" cy="597" r="26" fill="#EF4444"/>
  </g>

  <g>
    <rect x="683" y="270" width="130" height="44" rx="22" fill="#FFFFFF" stroke="#D5DDE6"/>
    <text x="710" y="299" fill="#344054" font-family="Inter, -apple-system, BlinkMacSystemFont, 'Segoe UI', sans-serif" font-size="16" font-weight="750">Codex</text>
    <rect x="648" y="345" width="145" height="44" rx="22" fill="#FFFFFF" stroke="#D5DDE6"/>
    <text x="676" y="374" fill="#344054" font-family="Inter, -apple-system, BlinkMacSystemFont, 'Segoe UI', sans-serif" font-size="16" font-weight="750">Cursor</text>
    <rect x="650" y="420" width="159" height="44" rx="22" fill="#FFFFFF" stroke="#D5DDE6"/>
    <text x="677" y="449" fill="#344054" font-family="Inter, -apple-system, BlinkMacSystemFont, 'Segoe UI', sans-serif" font-size="16" font-weight="750">OpenCode</text>
    <path d="M813 292H866" stroke="#C2CAD4" stroke-width="3" stroke-linecap="round" stroke-dasharray="7 9"/>
    <path d="M793 367H858" stroke="#C2CAD4" stroke-width="3" stroke-linecap="round" stroke-dasharray="7 9"/>
    <path d="M809 442H855" stroke="#C2CAD4" stroke-width="3" stroke-linecap="round" stroke-dasharray="7 9"/>
  </g>
</svg>
